<?xml version="1.0" encoding="UTF-8"?>
<svg width="128px" height="113px" viewBox="0 0 128 113" version="1.1" xmlns="http://www.w3.org/2000/svg" xmlns:xlink="http://www.w3.org/1999/xlink">
    <!-- Generator: Sketch 52.5 (67469) - http://www.bohemiancoding.com/sketch -->
    <title>img_nodate</title>
    <desc>Created with Sketch.</desc>
    <defs>
        <linearGradient x1="50%" y1="3.5745767%" x2="50%" y2="86.3841302%" id="linearGradient-1">
            <stop stop-color="#FFFFFF" offset="0%"></stop>
            <stop stop-color="#F0F2F7" offset="100%"></stop>
        </linearGradient>
        <path d="M64.9254084,11.102237 L112.613466,29.4495901 C114.431162,30.0932268 115.750851,31.2898362 116.064171,32.5856627 L124.923361,69.2254101 C125.236681,70.5212366 124.299881,71.7178459 122.460263,72.3614826 L65.8937956,90.7088357 C63.7889111,91.3451517 61.1940478,91.3451517 59.0891633,90.7088357 L2.5226955,72.3614826 C0.683077619,71.7178459 -0.253722145,70.5212366 0.0595980516,69.2254101 L8.91878775,32.5856627 C9.23210794,31.2898362 10.5517967,30.0932268 12.3694928,29.4495901 L60.0575504,11.102237 C61.5683823,10.465921 63.4145766,10.465921 64.9254084,11.102237 Z" id="path-2"></path>
        <filter x="-2.4%" y="-3.7%" width="104.8%" height="107.4%" filterUnits="objectBoundingBox" id="filter-3">
            <feGaussianBlur stdDeviation="2" in="SourceAlpha" result="shadowBlurInner1"></feGaussianBlur>
            <feOffset dx="0" dy="-2" in="shadowBlurInner1" result="shadowOffsetInner1"></feOffset>
            <feComposite in="shadowOffsetInner1" in2="SourceAlpha" operator="arithmetic" k2="-1" k3="1" result="shadowInnerInner1"></feComposite>
            <feColorMatrix values="0 0 0 0 0.221571863   0 0 0 0 0.259905826   0 0 0 0 0.338443701  0 0 0 0.06 0" type="matrix" in="shadowInnerInner1"></feColorMatrix>
        </filter>
        <radialGradient cx="26.0801069%" cy="56.6256223%" fx="26.0801069%" fy="56.6256223%" r="140.464906%" gradientTransform="translate(0.260801,0.566256),scale(0.459576,1.000000),rotate(-8.052118),translate(-0.260801,-0.566256)" id="radialGradient-4">
            <stop stop-color="#DBDCDE" offset="0%"></stop>
            <stop stop-color="#F0F2F5" stop-opacity="0" offset="100%"></stop>
        </radialGradient>
        <filter x="-5.3%" y="-11.6%" width="110.6%" height="123.1%" filterUnits="objectBoundingBox" id="filter-5">
            <feGaussianBlur stdDeviation="1.25" in="SourceGraphic"></feGaussianBlur>
        </filter>
        <linearGradient x1="83.067347%" y1="27.235629%" x2="32.3754304%" y2="94.5128347%" id="linearGradient-6">
            <stop stop-color="#E1E2E7" offset="0%"></stop>
            <stop stop-color="#F9F9F9" offset="100%"></stop>
        </linearGradient>
        <linearGradient x1="107.557338%" y1="9.69588358%" x2="0%" y2="75.7708372%" id="linearGradient-7">
            <stop stop-color="#FCFCFD" offset="0%"></stop>
            <stop stop-color="#D0D4DC" offset="100%"></stop>
        </linearGradient>
        <linearGradient x1="50%" y1="91.059992%" x2="36.6910702%" y2="17.0496965%" id="linearGradient-8">
            <stop stop-color="#CACDD4" offset="0%"></stop>
            <stop stop-color="#F2F2F2" offset="100%"></stop>
        </linearGradient>
        <radialGradient cx="24.7569944%" cy="28.4475574%" fx="24.7569944%" fy="28.4475574%" r="146.308498%" gradientTransform="translate(0.247570,0.284476),scale(0.313030,1.000000),rotate(-17.865477),scale(1.000000,0.054838),translate(-0.247570,-0.284476)" id="radialGradient-9">
            <stop stop-color="#FFFFFF" offset="0%"></stop>
            <stop stop-color="#FFFFFF" stop-opacity="0" offset="100%"></stop>
        </radialGradient>
        <linearGradient x1="70.725593%" y1="30.0836788%" x2="0%" y2="93.8427391%" id="linearGradient-10">
            <stop stop-color="#EAEBF0" offset="0%"></stop>
            <stop stop-color="#F8F8F8" offset="100%"></stop>
        </linearGradient>
        <radialGradient cx="100%" cy="67.5619419%" fx="100%" fy="67.5619419%" r="109.013304%" gradientTransform="translate(1.000000,0.675619),scale(1.000000,0.236271),rotate(90.000000),scale(1.000000,0.171091),translate(-1.000000,-0.675619)" id="radialGradient-11">
            <stop stop-color="#FFFFFF" offset="0%"></stop>
            <stop stop-color="#FFFFFF" stop-opacity="0" offset="100%"></stop>
        </radialGradient>
        <linearGradient x1="39.5295094%" y1="91.8335498%" x2="84.7858407%" y2="18.0654072%" id="linearGradient-12">
            <stop stop-color="#FEFEFE" offset="0%"></stop>
            <stop stop-color="#DBDCE2" offset="100%"></stop>
        </linearGradient>
        <radialGradient cx="68.9183885%" cy="100%" fx="68.9183885%" fy="100%" r="162.49498%" gradientTransform="translate(0.689184,1.000000),scale(0.462842,1.000000),rotate(172.988072),scale(1.000000,0.171091),translate(-0.689184,-1.000000)" id="radialGradient-13">
            <stop stop-color="#FFFFFF" offset="0%"></stop>
            <stop stop-color="#FFFFFF" stop-opacity="0" offset="100%"></stop>
        </radialGradient>
        <linearGradient x1="124.338206%" y1="89.2718568%" x2="-99.1610073%" y2="3.1340979%" id="linearGradient-14">
            <stop stop-color="#F1F2F5" offset="0%"></stop>
            <stop stop-color="#E4E7EA" offset="100%"></stop>
        </linearGradient>
        <radialGradient cx="100%" cy="54.9615883%" fx="100%" fy="54.9615883%" r="99.6482274%" gradientTransform="translate(1.000000,0.549616),scale(1.000000,0.258477),rotate(90.000000),scale(1.000000,0.171091),translate(-1.000000,-0.549616)" id="radialGradient-15">
            <stop stop-color="#FFFFFF" stop-opacity="0.471394252" offset="0%"></stop>
            <stop stop-color="#FFFFFF" stop-opacity="0" offset="100%"></stop>
        </radialGradient>
        <linearGradient x1="25.050132%" y1="106.414133%" x2="66.1717483%" y2="0%" id="linearGradient-16">
            <stop stop-color="#F9F9F9" offset="0%"></stop>
            <stop stop-color="#EAEBF0" offset="100%"></stop>
        </linearGradient>
        <radialGradient cx="64.2589896%" cy="68.548855%" fx="64.2589896%" fy="68.548855%" r="105.510418%" gradientTransform="translate(0.642590,0.685489),scale(0.498927,1.000000),rotate(160.656190),scale(1.000000,0.171091),translate(-0.642590,-0.685489)" id="radialGradient-17">
            <stop stop-color="#FFFFFF" offset="0%"></stop>
            <stop stop-color="#FFFFFF" stop-opacity="0" offset="100%"></stop>
        </radialGradient>
        <linearGradient x1="30.3707778%" y1="87.3707521%" x2="34.3897268%" y2="21.0520753%" id="linearGradient-18">
            <stop stop-color="#D6D7DC" offset="0%"></stop>
            <stop stop-color="#FAFBFF" offset="100%"></stop>
        </linearGradient>
        <radialGradient cx="64.7307593%" cy="32.8748753%" fx="64.7307593%" fy="32.8748753%" r="74.2479647%" gradientTransform="translate(0.647308,0.328749),scale(0.628186,1.000000),rotate(16.599031),scale(1.000000,0.077655),translate(-0.647308,-0.328749)" id="radialGradient-19">
            <stop stop-color="#FFFFFF" offset="0%"></stop>
            <stop stop-color="#FFFFFF" stop-opacity="0" offset="100%"></stop>
        </radialGradient>
        <linearGradient x1="28.0761116%" y1="0%" x2="65.2836478%" y2="88.1843664%" id="linearGradient-20">
            <stop stop-color="#83B4F3" offset="0%"></stop>
            <stop stop-color="#425DDA" offset="100%"></stop>
        </linearGradient>
        <radialGradient cx="13.039157%" cy="3.72757648%" fx="13.039157%" fy="3.72757648%" r="51.3163582%" gradientTransform="translate(0.130392,0.037276),scale(0.797242,1.000000),rotate(64.383629),scale(1.000000,5.685598),translate(-0.130392,-0.037276)" id="radialGradient-21">
            <stop stop-color="#FFFFFF" offset="0%"></stop>
            <stop stop-color="#FFFFFF" stop-opacity="0" offset="100%"></stop>
        </radialGradient>
        <radialGradient cx="85.5513974%" cy="85.9496944%" fx="85.5513974%" fy="85.9496944%" r="77.3478725%" gradientTransform="translate(0.855514,0.859497),scale(0.797242,1.000000),rotate(152.066898),scale(1.000000,0.313821),translate(-0.855514,-0.859497)" id="radialGradient-22">
            <stop stop-color="#2242D2" offset="0%"></stop>
            <stop stop-color="#000000" stop-opacity="0" offset="100%"></stop>
        </radialGradient>
        <path d="M3.0492,9.23705556e-14 L30.492,9.45910017e-14 C32.1760267,9.27859349e-14 33.5412,1.36517334 33.5412,3.0492 L33.5412,19.2952 C33.5412,20.9792267 32.1760267,22.3444 30.492,22.3444 L20.3210905,22.3444 L18.0856288,25.2011559 C17.5667265,25.8642749 16.6085089,25.9811857 15.9453898,25.4622834 C15.8468454,25.3851707 15.758169,25.2962195 15.6813615,25.197437 L13.4630061,22.3444 L3.0492,22.3444 C1.36517334,22.3444 1.88579806e-14,20.9792267 1.86517468e-14,19.2952 L4.4408921e-16,3.0492 C2.37855424e-16,1.36517334 1.36517334,9.31239955e-14 3.0492,9.28146449e-14 Z" id="path-23"></path>
        <radialGradient cx="11.408745%" cy="0%" fx="11.408745%" fy="0%" r="108.79499%" id="radialGradient-24">
            <stop stop-color="#F5F9FF" offset="0%"></stop>
            <stop stop-color="#739EEC" stop-opacity="0.396836928" offset="100%"></stop>
        </radialGradient>
        <radialGradient cx="12.369624%" cy="9.70138013%" fx="12.369624%" fy="9.70138013%" r="82.9033751%" id="radialGradient-25">
            <stop stop-color="#F5F9FF" stop-opacity="0.833126468" offset="0%"></stop>
            <stop stop-color="#739EEC" stop-opacity="0.173867392" offset="100%"></stop>
        </radialGradient>
        <radialGradient cx="0%" cy="21.7166887%" fx="0%" fy="21.7166887%" r="82.9033751%" id="radialGradient-26">
            <stop stop-color="#F5F9FF" stop-opacity="0.321978482" offset="0%"></stop>
            <stop stop-color="#739EEC" stop-opacity="0.00172093531" offset="100%"></stop>
        </radialGradient>
    </defs>
    <g id="空状态/无权限" stroke="none" stroke-width="1" fill="none" fill-rule="evenodd">
        <g id="01_无数据" transform="translate(-657.000000, -458.000000)">
            <g id="img_nodate" transform="translate(645.000000, 451.000000)">
                <rect id="矩形" x="0" y="0" width="150" height="125"></rect>
                <g id="编组-11" transform="translate(12.000000, 4.750000)">
                    <g id="编组-3" transform="translate(0.000000, 23.250000)">
                        <g id="多边形备份-2" opacity="0.5">
                            <use fill="url(#linearGradient-1)" fill-rule="evenodd" xlink:href="#path-2"></use>
                            <use fill="black" fill-opacity="1" filter="url(#filter-3)" xlink:href="#path-2"></use>
                        </g>
                        <polygon id="路径-12" fill="url(#radialGradient-4)" filter="url(#filter-5)" points="63.125 77.2407665 133.75 69.2038731 131.25 44.7832382 63.6789794 51.7104456"></polygon>
                        <g id="编组" transform="translate(19.178979, 15.375000)">
                            <polygon id="路径-3备份-3" fill="url(#linearGradient-6)" points="10.1807804 10.8051247 10.1807804 50.4942428 43.6793733 61.8657665 43.6793733 20.9014471"></polygon>
                            <polygon id="路径-4备份-3" fill="url(#linearGradient-7)" points="76.9520689 10.8051247 43.6793733 20.9014471 43.6793733 61.8657665 76.9520689 49.7416518"></polygon>
                            <path d="M11.2301264,10.7950076 L43.6790672,20.5749697 L75.909169,10.7950137 L43.6790477,0.328459311 L11.2301264,10.7950076 Z" id="路径-5备份-3" stroke="url(#radialGradient-9)" stroke-width="0.625" fill="url(#linearGradient-8)"></path>
                            <path d="M20.477842,14.2457738 L20.477842,53.5548838 L30.1130962,56.8115733 L30.1130962,17.2412389 L20.477842,14.2457738 Z" id="路径-9备份-3" stroke="url(#radialGradient-11)" stroke-width="0.625" fill="url(#linearGradient-10)"></path>
                            <path d="M10.2695666,11.1909081 L1.06764162,19.6803838 C0.928105916,19.8091161 0.919348028,20.0265903 1.04808033,20.166126 C1.08570613,20.2069094 1.13264562,20.2379782 1.18488842,20.2566778 L29.6578973,30.4482315 C29.9847264,30.5652158 30.3484819,30.5099196 30.6257837,30.3010983 L42.9307877,21.0348505 L10.2695666,11.1909081 Z" id="路径-6备份-3" stroke="url(#radialGradient-13)" stroke-width="0.6875" fill="url(#linearGradient-12)"></path>
                            <path d="M55.8682804,17.5283204 L55.8682804,57.1433247 L66.5507391,53.210842 L66.5507391,14.2669666 L55.8682804,17.5283204 Z" id="路径-10备份-3" stroke="url(#radialGradient-15)" stroke-width="0.625" fill="url(#linearGradient-14)" opacity="0.400000006"></path>
                            <path d="M44.2646383,21.0830806 L52.7142524,31.6536528 C52.9930862,32.0024774 53.4647568,32.1321962 53.8827526,31.9750135 L86.2440577,19.8059089 C86.421757,19.7390871 86.511641,19.5408635 86.4448192,19.3631641 C86.4242308,19.3084134 86.3900116,19.259822 86.3454003,19.2219888 L76.8726135,11.188462 L44.2646383,21.0830806 Z" id="路径-7备份-3" stroke="url(#radialGradient-17)" stroke-width="0.6875" fill="url(#linearGradient-16)"></path>
                            <path d="M43.9918733,0.430047684 L43.9918733,20.4800514 L75.909169,10.7950137 L43.9918733,0.430047684 Z" id="路径-11备份-2" stroke="url(#radialGradient-19)" stroke-width="0.625" fill="url(#linearGradient-18)"></path>
                        </g>
                        <g id="编组-2" transform="translate(46.500000, 0.000000)">
                            <g id="矩形备份-5" stroke-linejoin="square" stroke-width="0.91476">
                                <path stroke="url(#radialGradient-21)" d="M3.0492,0.45738 C1.61777734,0.45738 0.45738,1.61777734 0.45738,3.0492 L0.45738,19.2952 C0.45738,20.7266227 1.61777734,21.88702 3.0492,21.88702 L13.6867449,21.88702 L16.0424367,24.916686 C16.096202,24.9858337 16.1582755,25.0480995 16.2272565,25.1020784 C16.6914399,25.46531 17.3621922,25.3834725 17.7254238,24.9192892 L20.0982278,21.88702 L20.3210905,21.88702 L30.492,21.88702 C31.9234227,21.88702 33.08382,20.7266227 33.08382,19.2952 L33.08382,3.0492 C33.08382,1.61777734 31.9234227,0.45738 30.492,0.45738 L3.0492,0.45738 Z" fill="url(#linearGradient-20)" fill-rule="evenodd"></path>
                                <path stroke="url(#radialGradient-22)" d="M3.0492,0.45738 C1.61777734,0.45738 0.45738,1.61777734 0.45738,3.0492 L0.45738,19.2952 C0.45738,20.7266227 1.61777734,21.88702 3.0492,21.88702 L13.6867449,21.88702 L16.0424367,24.916686 C16.096202,24.9858337 16.1582755,25.0480995 16.2272565,25.1020784 C16.6914399,25.46531 17.3621922,25.3834725 17.7254238,24.9192892 L20.0982278,21.88702 L20.3210905,21.88702 L30.492,21.88702 C31.9234227,21.88702 33.08382,20.7266227 33.08382,19.2952 L33.08382,3.0492 C33.08382,1.61777734 31.9234227,0.45738 30.492,0.45738 L3.0492,0.45738 Z"></path>
                            </g>
                            <circle id="椭圆形备份-9" stroke="url(#radialGradient-24)" stroke-width="0.693" fill="#FFFFFF" cx="8.3853" cy="11.4345" r="2.6334"></circle>
                            <circle id="椭圆形备份-10" stroke="url(#radialGradient-25)" stroke-width="0.693" fill="#FFFFFF" cx="17.5329" cy="11.4345" r="2.6334"></circle>
                            <circle id="椭圆形备份-11" stroke="url(#radialGradient-26)" stroke-width="0.693" fill="#FFFFFF" cx="26.6805" cy="11.4345" r="2.6334"></circle>
                        </g>
                    </g>
                    <path d="M18.75,34.4311847 L15.9995294,35.4848014 C15.806127,35.5588876 15.5892848,35.4621628 15.5151986,35.2687605 C15.482113,35.1823906 15.482113,35.0868405 15.5151986,35.0004706 L16.5688153,32.25 L15.5151986,29.4995294 C15.4411124,29.306127 15.5378372,29.0892848 15.7312395,29.0151986 C15.8176094,28.982113 15.9131595,28.982113 15.9995294,29.0151986 L18.75,30.0688153 L21.5004706,29.0151986 C21.693873,28.9411124 21.9107152,29.0378372 21.9848014,29.2312395 C22.017887,29.3176094 22.017887,29.4131595 21.9848014,29.4995294 L20.9311847,32.25 L21.9848014,35.0004706 C22.0588876,35.193873 21.9621628,35.4107152 21.7687605,35.4848014 C21.6823906,35.517887 21.5868405,35.517887 21.5004706,35.4848014 L18.75,34.4311847 Z" id="星形" fill="#F5F6FA" transform="translate(18.750000, 32.250000) rotate(-315.000000) translate(-18.750000, -32.250000) "></path>
                    <path d="M71.5,9.43118466 L68.7495294,10.4848014 C68.556127,10.5588876 68.3392848,10.4621628 68.2651986,10.2687605 C68.232113,10.1823906 68.232113,10.0868405 68.2651986,10.0004706 L69.3188153,7.25 L68.2651986,4.49952936 C68.1911124,4.30612705 68.2878372,4.08928476 68.4812395,4.01519856 C68.5676094,3.98211304 68.6631595,3.98211304 68.7495294,4.01519856 L71.5,5.06881534 L74.2504706,4.01519856 C74.443873,3.94111236 74.6607152,4.03783718 74.7348014,4.23123949 C74.767887,4.31760937 74.767887,4.41315948 74.7348014,4.49952936 L73.6811847,7.25 L74.7348014,10.0004706 C74.8088876,10.193873 74.7121628,10.4107152 74.5187605,10.4848014 C74.4323906,10.517887 74.3368405,10.517887 74.2504706,10.4848014 L71.5,9.43118466 Z" id="星形备份" fill="#EFF1F6" transform="translate(71.500000, 7.250000) rotate(-315.000000) translate(-71.500000, -7.250000) "></path>
                    <path d="M101.25,38.3405923 L99.8747647,38.8674007 C99.7780635,38.9044438 99.6696424,38.8560814 99.6325993,38.7593803 C99.6160565,38.7161953 99.6160565,38.6684203 99.6325993,38.6252353 L100.159408,37.25 L99.6325993,35.8747647 C99.5955562,35.7780635 99.6439186,35.6696424 99.7406197,35.6325993 C99.7838047,35.6160565 99.8315797,35.6160565 99.8747647,35.6325993 L101.25,36.1594077 L102.625235,35.6325993 C102.721936,35.5955562 102.830358,35.6439186 102.867401,35.7406197 C102.883943,35.7838047 102.883943,35.8315797 102.867401,35.8747647 L102.340592,37.25 L102.867401,38.6252353 C102.904444,38.7219365 102.856081,38.8303576 102.75938,38.8674007 C102.716195,38.8839435 102.66842,38.8839435 102.625235,38.8674007 L101.25,38.3405923 Z" id="星形备份-2" fill="#F5F6FA" transform="translate(101.250000, 37.250000) rotate(-315.000000) translate(-101.250000, -37.250000) "></path>
                </g>
            </g>
        </g>
    </g>
</svg>